<mxfile host="65bd71144e">
    <diagram id="_goK3QCY4RT-50E2dYm9" name="Page-1">
        <mxGraphModel dx="924" dy="659" grid="1" gridSize="10" guides="1" tooltips="1" connect="1" arrows="1" fold="1" page="1" pageScale="1" pageWidth="850" pageHeight="1100" math="0" shadow="0">
            <root>
                <mxCell id="0"/>
                <mxCell id="1" parent="0"/>
                <mxCell id="2" value="CPU 核心" style="rounded=1;whiteSpace=wrap;html=1;" vertex="1" parent="1">
                    <mxGeometry x="320" y="630" width="200" height="80" as="geometry"/>
                </mxCell>
                <mxCell id="3" value="" style="curved=1;endArrow=classic;html=1;" edge="1" parent="1">
                    <mxGeometry width="50" height="50" relative="1" as="geometry">
                        <mxPoint x="360" y="630" as="sourcePoint"/>
                        <mxPoint x="480" y="510" as="targetPoint"/>
                        <Array as="points">
                            <mxPoint x="480" y="630"/>
                            <mxPoint x="360" y="510"/>
                        </Array>
                    </mxGeometry>
                </mxCell>
                <mxCell id="7" value="线程 running" style="edgeLabel;html=1;align=center;verticalAlign=middle;resizable=0;points=[];" vertex="1" connectable="0" parent="3">
                    <mxGeometry x="0.0966" y="-4" relative="1" as="geometry">
                        <mxPoint as="offset"/>
                    </mxGeometry>
                </mxCell>
                <mxCell id="5" value="CPU 核心" style="rounded=1;whiteSpace=wrap;html=1;" vertex="1" parent="1">
                    <mxGeometry x="640" y="630" width="200" height="80" as="geometry"/>
                </mxCell>
                <mxCell id="6" value="" style="curved=1;endArrow=classic;html=1;" edge="1" parent="1">
                    <mxGeometry width="50" height="50" relative="1" as="geometry">
                        <mxPoint x="680" y="630" as="sourcePoint"/>
                        <mxPoint x="800" y="510" as="targetPoint"/>
                        <Array as="points">
                            <mxPoint x="800" y="630"/>
                            <mxPoint x="680" y="510"/>
                        </Array>
                    </mxGeometry>
                </mxCell>
                <mxCell id="8" value="线程 running" style="edgeLabel;html=1;align=center;verticalAlign=middle;resizable=0;points=[];" vertex="1" connectable="0" parent="6">
                    <mxGeometry x="0.038" relative="1" as="geometry">
                        <mxPoint x="1" as="offset"/>
                    </mxGeometry>
                </mxCell>
                <mxCell id="9" value="" style="curved=1;endArrow=classic;html=1;" edge="1" parent="1">
                    <mxGeometry width="50" height="50" relative="1" as="geometry">
                        <mxPoint x="160" y="710" as="sourcePoint"/>
                        <mxPoint x="280" y="590" as="targetPoint"/>
                        <Array as="points">
                            <mxPoint x="280" y="710"/>
                            <mxPoint x="160" y="590"/>
                        </Array>
                    </mxGeometry>
                </mxCell>
                <mxCell id="10" value="线程 waiting/ready" style="edgeLabel;html=1;align=center;verticalAlign=middle;resizable=0;points=[];" vertex="1" connectable="0" parent="9">
                    <mxGeometry x="0.0966" y="-4" relative="1" as="geometry">
                        <mxPoint as="offset"/>
                    </mxGeometry>
                </mxCell>
                <mxCell id="11" value="" style="curved=1;endArrow=classic;html=1;" edge="1" parent="1">
                    <mxGeometry width="50" height="50" relative="1" as="geometry">
                        <mxPoint x="60" y="710" as="sourcePoint"/>
                        <mxPoint x="180" y="590" as="targetPoint"/>
                        <Array as="points">
                            <mxPoint x="180" y="710"/>
                            <mxPoint x="60" y="590"/>
                        </Array>
                    </mxGeometry>
                </mxCell>
                <mxCell id="12" value="线程 waiting/ready" style="edgeLabel;html=1;align=center;verticalAlign=middle;resizable=0;points=[];" vertex="1" connectable="0" parent="11">
                    <mxGeometry x="0.0966" y="-4" relative="1" as="geometry">
                        <mxPoint as="offset"/>
                    </mxGeometry>
                </mxCell>
                <mxCell id="13" value="M machine" style="ellipse;whiteSpace=wrap;html=1;aspect=fixed;dashed=1;dashPattern=1 1;" vertex="1" parent="1">
                    <mxGeometry x="380" y="390" width="80" height="80" as="geometry"/>
                </mxCell>
                <mxCell id="15" value="&lt;div&gt;&lt;br&gt;&lt;/div&gt;&lt;div&gt;&lt;br&gt;&lt;/div&gt;&lt;div&gt;&lt;br&gt;&lt;/div&gt;&lt;div&gt;&lt;br&gt;&lt;/div&gt;&lt;div&gt;P processor&lt;/div&gt;" style="rounded=1;whiteSpace=wrap;html=1;dashed=1;dashPattern=1 1;" vertex="1" parent="1">
                    <mxGeometry x="320" y="160" width="200" height="120" as="geometry"/>
                </mxCell>
                <mxCell id="16" value="&lt;div&gt;&lt;br&gt;&lt;/div&gt;&lt;div&gt;&lt;br&gt;&lt;/div&gt;&lt;div&gt;&lt;br&gt;&lt;/div&gt;&lt;div&gt;公共队列&lt;/div&gt;" style="rounded=1;whiteSpace=wrap;html=1;dashed=1;dashPattern=1 1;" vertex="1" parent="1">
                    <mxGeometry x="520" y="30" width="200" height="110" as="geometry"/>
                </mxCell>
                <mxCell id="17" value="" style="curved=1;endArrow=classic;html=1;dashed=1;dashPattern=1 1;" edge="1" parent="1">
                    <mxGeometry width="50" height="50" relative="1" as="geometry">
                        <mxPoint x="400" y="360" as="sourcePoint"/>
                        <mxPoint x="450" y="310" as="targetPoint"/>
                        <Array as="points">
                            <mxPoint x="450" y="360"/>
                            <mxPoint x="400" y="310"/>
                        </Array>
                    </mxGeometry>
                </mxCell>
                <mxCell id="18" value="G 协程 running" style="edgeLabel;html=1;align=center;verticalAlign=middle;resizable=0;points=[];" vertex="1" connectable="0" parent="17">
                    <mxGeometry x="0.063" relative="1" as="geometry">
                        <mxPoint as="offset"/>
                    </mxGeometry>
                </mxCell>
                <mxCell id="26" value="" style="curved=1;endArrow=classic;html=1;dashed=1;dashPattern=1 1;" edge="1" parent="1">
                    <mxGeometry width="50" height="50" relative="1" as="geometry">
                        <mxPoint x="330" y="230" as="sourcePoint"/>
                        <mxPoint x="380" y="180" as="targetPoint"/>
                        <Array as="points">
                            <mxPoint x="380" y="230"/>
                            <mxPoint x="330" y="180"/>
                        </Array>
                    </mxGeometry>
                </mxCell>
                <mxCell id="27" value="G 协程 waiting/ready" style="edgeLabel;html=1;align=center;verticalAlign=middle;resizable=0;points=[];" vertex="1" connectable="0" parent="26">
                    <mxGeometry x="0.063" relative="1" as="geometry">
                        <mxPoint as="offset"/>
                    </mxGeometry>
                </mxCell>
                <mxCell id="28" value="" style="curved=1;endArrow=classic;html=1;dashed=1;dashPattern=1 1;" edge="1" parent="1">
                    <mxGeometry width="50" height="50" relative="1" as="geometry">
                        <mxPoint x="390" y="230" as="sourcePoint"/>
                        <mxPoint x="440" y="180" as="targetPoint"/>
                        <Array as="points">
                            <mxPoint x="440" y="230"/>
                            <mxPoint x="390" y="180"/>
                        </Array>
                    </mxGeometry>
                </mxCell>
                <mxCell id="29" value="G 协程 waiting/ready" style="edgeLabel;html=1;align=center;verticalAlign=middle;resizable=0;points=[];" vertex="1" connectable="0" parent="28">
                    <mxGeometry x="0.063" relative="1" as="geometry">
                        <mxPoint as="offset"/>
                    </mxGeometry>
                </mxCell>
                <mxCell id="30" value="" style="curved=1;endArrow=classic;html=1;dashed=1;dashPattern=1 1;" edge="1" parent="1">
                    <mxGeometry width="50" height="50" relative="1" as="geometry">
                        <mxPoint x="450" y="230" as="sourcePoint"/>
                        <mxPoint x="500" y="180" as="targetPoint"/>
                        <Array as="points">
                            <mxPoint x="500" y="230"/>
                            <mxPoint x="450" y="180"/>
                        </Array>
                    </mxGeometry>
                </mxCell>
                <mxCell id="31" value="G 协程 waiting/ready" style="edgeLabel;html=1;align=center;verticalAlign=middle;resizable=0;points=[];" vertex="1" connectable="0" parent="30">
                    <mxGeometry x="0.063" relative="1" as="geometry">
                        <mxPoint as="offset"/>
                    </mxGeometry>
                </mxCell>
                <mxCell id="32" value="" style="curved=1;endArrow=classic;html=1;dashed=1;dashPattern=1 1;" edge="1" parent="1">
                    <mxGeometry width="50" height="50" relative="1" as="geometry">
                        <mxPoint x="530" y="95" as="sourcePoint"/>
                        <mxPoint x="580" y="45" as="targetPoint"/>
                        <Array as="points">
                            <mxPoint x="580" y="95"/>
                            <mxPoint x="530" y="45"/>
                        </Array>
                    </mxGeometry>
                </mxCell>
                <mxCell id="33" value="G 协程 waiting/ready" style="edgeLabel;html=1;align=center;verticalAlign=middle;resizable=0;points=[];" vertex="1" connectable="0" parent="32">
                    <mxGeometry x="0.063" relative="1" as="geometry">
                        <mxPoint as="offset"/>
                    </mxGeometry>
                </mxCell>
                <mxCell id="34" style="edgeStyle=none;html=1;" edge="1" parent="1">
                    <mxGeometry relative="1" as="geometry">
                        <mxPoint x="230.00000000000023" y="590.0000000000002" as="targetPoint"/>
                        <mxPoint x="360" y="240" as="sourcePoint"/>
                    </mxGeometry>
                </mxCell>
                <mxCell id="35" value="binding" style="edgeLabel;html=1;align=center;verticalAlign=middle;resizable=0;points=[];" vertex="1" connectable="0" parent="34">
                    <mxGeometry x="-0.2026" y="-3" relative="1" as="geometry">
                        <mxPoint as="offset"/>
                    </mxGeometry>
                </mxCell>
            </root>
        </mxGraphModel>
    </diagram>
</mxfile>